<?xml version="1.0" encoding="utf-8"?>
<svg version="1.1" xmlns="http://www.w3.org/2000/svg" xmlns:xlink="http://www.w3.org/1999/xlink" x="0px" y="0px"
	 viewBox="0 0 215.43 249.45" style="enable-background:new 0 0 215.43 249.45;" xml:space="preserve">
<style type="text/css">
	.st0{fill:#FFFFFF;}
	.st1{fill:#8CC63F;}
	.st2{fill:#ED2A7B;}
	.st3{fill:#F2B11C;}
</style>
<g id="Layer_1">
	<g>
		<path class="st0" d="M208.02,117.55l-0.03-0.38c-2.06-31.06-27.01-56.04-58.07-58.1h-0.38c-28.15-0.63-55.49-0.63-83.63,0h-0.4
			c-31.03,2.09-56.01,27.04-58.07,58.1v0.38c-0.65,28.15-0.65,37.53,0,65.67v0.38c2.06,31.06,27.04,56.04,58.07,58.1h0.4
			c14.07,0.33,27.94,0.48,41.82,0.48c5.2,0,3.83-0.03,9.06-0.08c-10.78-4.3-21.56-10.38-31.64-17.59
			c-8.37-0.08-10.16-0.2-18.63-0.38C44.73,222.57,26.56,204.4,25,182.62c-0.63-27.72-0.63-36.75,0-64.47
			c1.56-21.79,19.73-39.96,41.51-41.51c27.72-0.6,54.68-0.6,82.42,0c21.79,1.56,39.96,19.73,41.51,41.51
			c0.6,27.72,0.6,36.75,0,64.47c-1.42,19.83-16.6,36.67-35.75,40.7c-1.89,0.4,0.77,17.75,0.77,17.75
			c28.42-4.47,50.59-28.3,52.52-57.47l0.03-0.38C208.65,155.08,208.65,145.69,208.02,117.55z"/>
		<path class="st0" d="M155.47,223.33v17.59c-48.47,0-115.27-57.65-115.27-99.51c0,0,0-2.74,0-4.17c0-21.39,17.39-38.8,38.77-38.8
			c11.11,0,21.51,4.88,28.72,12.79c7.24-7.92,17.62-12.79,28.75-12.79c21.39,0,38.8,17.41,38.8,38.8c0,32.89-32.01,56.24-50.79,67.1
			c-5.78-3.17-11.46-6.86-16.86-10.91c11.71-5.86,50.06-27.24,50.06-56.19c0-11.69-9.52-21.21-21.21-21.21
			c-5.68,0-11.01,2.31-14.88,6.16l-13.87,13.03l-13.29-12.48c-3.92-4.17-9.47-6.71-15.43-6.71c-10.53,0-19.3,7.74-20.91,17.84
			c-0.18,1.08-0.28,2.21-0.28,3.37c0,1.48,0,4.35,0,4.35C58.02,171.26,114.33,223.33,155.47,223.33z"/>
		<path class="st0" d="M144.91,7.27c-9.83,0-20.67,4.98-29.79,13.37c-0.05,0.03-0.08,0.08-0.1,0.11c-1.18,1.05-2.33,2.18-3.44,3.38
			c2.91,3.65,5.59,7.34,8.52,10.67c0.21-0.26,0.39-0.5,0.6-0.73c0,0,0.03-0.03,0.05-0.05c0.76-0.87,1.55-1.68,2.33-2.47
			c0.71-0.71,1.42-1.39,2.15-2.02c6.35-5.56,13.45-8.73,19.67-8.73c8.16,0,12.4,8.52,12.4,16.97c0,2.62-0.39,5.32-1.63,7.66
			c-0.89,1.73-2.31,3.25-4.38,4.3c-1.68,0.89-3.83,1.44-6.5,1.6c-14.5,0.79-22.4-4.85-28.98-12.3c-2.94-3.3-5.61-6.98-8.52-10.62
			c-4.75-5.98-10.04-11.83-18.02-15.79c-4.77-2.39-9.76-4.48-15.05-5.11c-1.23-0.16-2.47-0.24-3.7-0.24
			c-5.56,0-10.59,1.86-14.71,5.09c-1.63,1.26-3.09,2.75-4.41,4.41c0,0,0,0.03-0.03,0.03c-4.27,5.38-6.79,12.72-6.79,20.98
			c0,16.23,10.49,27.09,26.04,27.09c5.74,0,18.2-2.18,28.14-7c1.84-0.89,3.57-1.86,5.17-2.94c-0.39-0.39-0.81-0.79-1.18-1.21
			c-2.83-2.96-5.19-6.08-7.58-9.18c-5.98,3.38-16.78,6.79-24.55,6.79c-10.33,0-12.51-7.34-12.51-13.56c0-4.04,0.94-8.08,2.88-11.2
			c1.13-1.89,2.6-3.44,4.38-4.43c1.47-0.87,3.2-1.34,5.14-1.34c4.83,0,9.41,2.15,13.56,4.46c7.05,3.93,11.28,9.34,15.55,14.92
			c2.65,3.46,5.3,7,8.65,10.28l0.05,0.08c7.03,6.84,17.07,12.61,36.45,14.32c6.22,0.55,11.64-1.08,15.92-4.3
			c1.6-1.21,3.07-2.65,4.35-4.3c3.67-4.8,5.77-11.25,5.77-18.49C170.85,20.41,159.7,7.27,144.91,7.27z"/>
	</g>
</g>
<g id="Layer_2">
</g>
</svg>